<?xml version="1.0" encoding="UTF-8" standalone="no"?>
<svg width="28px" height="26px" viewBox="0 0 28 26" version="1.1" xmlns="http://www.w3.org/2000/svg" xmlns:xlink="http://www.w3.org/1999/xlink">
    <!-- Generator: Sketch 41 (35326) - http://www.bohemiancoding.com/sketch -->
    <title>icon_diamond</title>
    <desc>Created with Sketch.</desc>
    <defs></defs>
    <g id="Page-1" stroke="none" stroke-width="1" fill="none" fill-rule="evenodd">
        <g id="update-_2" transform="translate(-323.000000, -29.000000)" fill="#FFFFFF">
            <g id="icon_diamond" transform="translate(323.000000, 29.000000)">
                <g id="Capa_1">
                    <path d="M27.9869333,8.47653333 C27.9902,8.4574 27.9920667,8.43873333 27.993,8.41913333 C27.9939333,8.39626667 27.9934667,8.37433333 27.9916,8.35146667 C27.9897333,8.33186667 27.9869333,8.3132 27.9822667,8.29406667 C27.9771333,8.27166667 27.9701333,8.2502 27.9617333,8.22873333 C27.9575333,8.21753333 27.9566,8.20586667 27.9514667,8.19513333 C27.9477333,8.1872 27.9412,8.18113333 27.937,8.1732 C27.9328,8.16526667 27.9309333,8.15686667 27.9262667,8.14893333 L23.2596,0.682266667 C23.2381333,0.6482 23.2129333,0.6174 23.1844667,0.590333333 C23.184,0.589866667 23.1835333,0.589866667 23.1830667,0.5894 C23.1429333,0.5516 23.0953333,0.524533333 23.0444667,0.503066667 C23.0379333,0.500266667 23.0337333,0.494666667 23.0267333,0.491866667 C23.0216,0.49 23.016,0.490933333 23.0108667,0.489533333 C22.9637333,0.473666667 22.9152,0.462933333 22.8643333,0.462933333 L5.131,0.462933333 C5.0806,0.462933333 5.03253333,0.473666667 4.98633333,0.489066667 C4.9812,0.490466667 4.97606667,0.489533333 4.9714,0.4914 C4.9644,0.493733333 4.9602,0.499333333 4.95366667,0.502133333 C4.90513333,0.5222 4.8594,0.548333333 4.81973333,0.5838 C4.8174,0.586133333 4.81413333,0.587533333 4.8118,0.5894 C4.78286667,0.616466667 4.7572,0.647733333 4.73573333,0.6818 L0.0690666667,8.14846667 C0.0644,8.15593333 0.0625333333,8.1648 0.0583333333,8.17273333 C0.0541333333,8.18066667 0.0476,8.18673333 0.0438666667,8.19466667 C0.0387333333,8.2054 0.0378,8.21706667 0.0331333333,8.22826667 C0.0247333333,8.24973333 0.0177333333,8.2712 0.0126,8.2936 C0.0084,8.31273333 0.00513333333,8.33186667 0.00326666667,8.35146667 C-6.77626358e-21,8.37433333 -0.000466666667,8.39673333 0.000466666667,8.41913333 C0.0014,8.43873333 0.00326666667,8.4574 0.00653333333,8.47653333 C0.0102666667,8.49893333 0.0163333333,8.52086667 0.0238,8.5428 C0.0298666667,8.561 0.0364,8.57873333 0.0448,8.59646667 C0.049,8.60486667 0.0504,8.6142 0.0550666667,8.6226 C0.0625333333,8.63613333 0.0737333333,8.6464 0.0821333333,8.659 C0.0886666667,8.6688 0.0924,8.67953333 0.100333333,8.68886667 L13.6285333,25.4823333 C13.6294667,25.4837333 13.6304,25.4846667 13.6313333,25.4856 L13.6336667,25.4888667 C13.6350667,25.4907333 13.6374,25.4912 13.6388,25.4930667 C13.6770667,25.5392667 13.7246667,25.5742667 13.7764667,25.6022667 C13.7904667,25.6097333 13.8035333,25.6162667 13.818,25.6223333 C13.8744667,25.6461333 13.9342,25.6629333 13.9967333,25.6629333 C14.0499333,25.6629333 14.1036,25.6536 14.1568,25.6344667 C14.1647333,25.6316667 14.1698667,25.6251333 14.1778,25.6218667 C14.2016,25.6120667 14.2202667,25.5962 14.2417333,25.5826667 C14.2772,25.5602667 14.3103333,25.5369333 14.3378667,25.5066 C14.3444,25.4996 14.3542,25.4963333 14.3602667,25.4888667 L27.8936,8.68886667 C27.9010667,8.67953333 27.9048,8.66833333 27.9118,8.659 C27.9206667,8.6464 27.9314,8.63613333 27.9388667,8.6226 C27.9435333,8.6142 27.9449333,8.60486667 27.9491333,8.59646667 C27.9575333,8.57873333 27.9640667,8.56146667 27.9701333,8.5428 C27.9766667,8.52086667 27.9832,8.4994 27.9869333,8.47653333 Z M14.9776667,1.39673333 L22.1918667,1.39673333 L19.9238667,7.4844 L14.9776667,1.39673333 Z M19.0829333,7.93006667 L8.911,7.93006667 L13.9967333,1.67066667 L19.0829333,7.93006667 Z M8.03693333,7.525 L5.7974,1.39673333 L13.0162667,1.39673333 L8.03693333,7.525 Z M19.4100667,8.8634 L13.9150667,23.6128667 L8.52553333,8.8634 L19.4100667,8.8634 Z M22.9698,1.98146667 L26.6877333,7.93053333 L20.7536,7.93053333 L22.9698,1.98146667 Z M5.01946667,1.98753333 L7.19086667,7.93006667 L1.30573333,7.93006667 L5.01946667,1.98753333 Z M7.532,8.8634 L12.5902,22.7066 L1.43873333,8.8634 L7.532,8.8634 Z M15.1153333,23.0640667 L20.4059333,8.8634 L26.5547333,8.8634 L15.1153333,23.0640667 Z" id="Shape"></path>
                </g>
            </g>
        </g>
    </g>
</svg>