<?xml version="1.0" encoding="UTF-8" standalone="no"?>
<svg width="189px" height="48px" viewBox="0 0 189 48" version="1.1" xmlns="http://www.w3.org/2000/svg" xmlns:xlink="http://www.w3.org/1999/xlink">
    <!-- Generator: Sketch 41 (35326) - http://www.bohemiancoding.com/sketch -->
    <title>title</title>
    <desc>Created with Sketch.</desc>
    <defs></defs>
    <g id="Symbols" stroke="none" stroke-width="1" fill="none" fill-rule="evenodd">
        <g id="title" fill="#FFFFFF">
            <g transform="translate(-1.000000, 8.000000)">
                <path d="M25.09,15.12 C25.3100011,15.12 25.4899993,15.1949993 25.63,15.345 C25.7700007,15.4950007 25.84,15.669999 25.84,15.87 C25.84,16.0300008 25.7900005,16.1599995 25.69,16.26 C25.5699994,16.4800011 25.3800013,16.7699982 25.12,17.13 C24.8599987,17.4900018 24.5450018,17.8899978 24.175,18.33 C23.8049981,18.7700022 23.3900023,19.2299976 22.93,19.71 C22.4699977,20.1900024 21.9700027,20.6699976 21.43,21.15 C20.229994,22.1900052 19.0800055,23.009997 17.98,23.61 C16.6199932,24.3300036 15.3700057,24.69 14.23,24.69 C12.7899928,24.69 11.6800039,24.2500044 10.9,23.37 C10.1199961,22.5099957 9.73,21.2000088 9.73,19.44 C9.73,18.4799952 9.8499988,17.4400056 10.09,16.32 C10.3300012,15.1999944 10.6899976,14.040006 11.17,12.84 C11.5500019,11.8599951 11.9799976,10.9150046 12.46,10.005 C12.9400024,9.09499545 13.4499973,8.240004 13.99,7.44 L13.57,7.38 C12.569995,7.1999991 11.570005,7.04500065 10.57,6.915 C9.569995,6.78499935 8.6200045,6.72 7.72,6.72 C6.3399931,6.72 5.2600039,6.92499795 4.48,7.335 C3.6999961,7.74500205 3.1300018,8.3999955 2.77,9.3 C3.1100017,9.5400012 3.28,9.859998 3.28,10.26 C3.28,10.5800016 3.16500115,10.8499989 2.935,11.07 C2.70499885,11.2900011 2.4300016,11.4 2.11,11.4 C1.7699983,11.4 1.49500105,11.2900011 1.285,11.07 C1.07499895,10.8499989 0.97,10.540002 0.97,10.14 L0.97,10.02 C1.2700015,8.4399921 1.9899943,7.2400041 3.13,6.42 C4.2500056,5.619996 5.7899902,5.22 7.75,5.22 C8.7100048,5.22 9.6999949,5.2899993 10.72,5.43 C11.7400051,5.5700007 12.7599949,5.7199992 13.78,5.88 L15.01,6.09 L15.4,5.58 L15.43,5.58 C16.0100029,4.9199967 16.6199968,4.3100028 17.26,3.75 C17.9000032,3.1899972 18.5399968,2.7000021 19.18,2.28 C20.580007,1.3999956 21.8199946,0.96 22.9,0.96 C23.5600033,0.96 24.084998,1.07499885 24.475,1.305 C24.8650019,1.53500115 25.1699989,1.7599989 25.39,1.98 C25.8500023,2.5400028 26.08,3.219996 26.08,4.02 C26.08,5.5200075 25.3700071,6.6199965 23.95,7.32 C23.3099968,7.6600017 22.6200037,7.87499955 21.88,7.965 C21.1399963,8.05500045 20.4900028,8.1 19.93,8.1 C19.4699977,8.1 19.0050023,8.0800002 18.535,8.04 C18.0649976,7.9999998 17.630002,7.9600002 17.23,7.92 C16.629997,8.7800043 16.0700026,9.70499505 15.55,10.695 C15.0299974,11.6850049 14.5850018,12.6899949 14.215,13.71 C13.8449981,14.7300051 13.555001,15.7299951 13.345,16.71 C13.1349989,17.6900049 13.03,18.5999958 13.03,19.44 C13.03,19.7800017 13.0499998,20.1599979 13.09,20.58 C13.1300002,21.0000021 13.2199993,21.3949981 13.36,21.765 C13.5000007,22.1350019 13.6899988,22.4449987 13.93,22.695 C14.1700012,22.9450013 14.4999979,23.07 14.92,23.07 C15.7000039,23.07 16.6049948,22.7600031 17.635,22.14 C18.6650051,21.5199969 19.7999938,20.610006 21.04,19.41 C21.4800022,18.9699978 21.899998,18.5350022 22.3,18.105 C22.700002,17.6749979 23.0549984,17.2800018 23.365,16.92 C23.6750015,16.5599982 23.9349989,16.2550012 24.145,16.005 C24.355001,15.7549987 24.4899997,15.5800005 24.55,15.48 L24.52,15.51 L24.55,15.48 C24.55,15.4599999 24.5549999,15.45 24.565,15.45 C24.575,15.45 24.58,15.4400001 24.58,15.42 C24.6800005,15.219999 24.8499988,15.12 25.09,15.12 Z M24.55,3.96 C24.55,3.6199983 24.450001,3.3100014 24.25,3.03 C24.049999,2.7499986 23.7800017,2.61 23.44,2.61 C23.039998,2.61 22.5500029,2.78499825 21.97,3.135 C21.3899971,3.48500175 20.7600034,3.9899967 20.08,4.65 C19.7399983,4.9700016 19.4200015,5.29499835 19.12,5.625 C18.8199985,5.95500165 18.5500012,6.2599986 18.31,6.54 C18.5700013,6.5600001 18.8249987,6.57499995 19.075,6.585 C19.3250012,6.59500005 19.5799987,6.6 19.84,6.6 C21.1600066,6.6 22.219996,6.4300017 23.02,6.09 C23.8000039,5.7299982 24.289999,5.2100034 24.49,4.53 C24.5100001,4.4299995 24.525,4.33500045 24.535,4.245 C24.545,4.15499955 24.55,4.0600005 24.55,3.96 Z M40.45,14.91 C40.6700011,14.91 40.8499993,14.9799993 40.99,15.12 C41.1300007,15.2600007 41.2,15.4399989 41.2,15.66 C41.2,15.8400009 41.1600004,15.9799995 41.08,16.08 L40.45,17.13 L39.97,17.91 C39.4499974,18.7700043 38.9150027,19.6399956 38.365,20.52 C37.8149972,21.4000044 37.1600038,22.2999954 36.4,23.22 L36.4,23.25 C36.1199986,23.5900017 35.8250015,23.9349982 35.515,24.285 C35.2049984,24.6350018 34.8700018,24.9549985 34.51,25.245 C34.1499982,25.5350014 33.770002,25.774999 33.37,25.965 C32.969998,26.155001 32.5500022,26.25 32.11,26.25 C31.2699958,26.25 30.6000025,25.9200033 30.1,25.26 C29.699998,24.6999972 29.5,23.9500047 29.5,23.01 C29.5,22.4899974 29.5799992,21.9150032 29.74,21.285 C29.9000008,20.6549968 30.0699991,20.0200032 30.25,19.38 C30.4100008,18.8399973 30.5549993,18.3150026 30.685,17.805 C30.8150006,17.2949975 30.88,16.8700017 30.88,16.53 C30.88,16.3099989 30.8600002,16.1800002 30.82,16.14 L30.76,16.14 C30.7199998,16.14 30.6450005,16.1599998 30.535,16.2 C30.4249994,16.2400002 30.2750009,16.3399992 30.085,16.5 C29.894999,16.6600008 29.6600014,16.8999984 29.38,17.22 C29.0999986,17.5400016 28.7800018,17.9799972 28.42,18.54 C27.9599977,19.2800037 27.525002,20.0349961 27.115,20.805 C26.7049979,21.5750039 26.3600014,22.2199974 26.08,22.74 L25.84,23.22 C25.7199994,23.5800018 25.4750018,23.8749989 25.105,24.105 C24.7349981,24.3350011 24.3000025,24.45 23.8,24.45 C23.6199991,24.45 23.4350009,24.4300002 23.245,24.39 C23.054999,24.3499998 22.8500011,24.3000003 22.63,24.24 C22.4699992,24.1799997 22.3600003,24.0700008 22.3,23.91 C22.2399997,23.8099995 22.2149999,23.7150005 22.225,23.625 C22.235,23.5349996 22.2599998,23.4000009 22.3,23.22 L22.48,22.47 L23.2,19.8 C23.4800014,18.8199951 23.819998,17.6400069 24.22,16.26 C24.620002,14.8799931 25.0499977,13.4400075 25.51,11.94 C26.710006,8.2199814 27.7499956,5.4400092 28.63,3.6 C29.1700027,2.5199946 29.6699977,1.73500245 30.13,1.245 C30.5900023,0.75499755 31.0499977,0.51 31.51,0.51 C31.8500017,0.51 32.1549986,0.5999991 32.425,0.78 C32.6950013,0.9600009 32.8999993,1.1599989 33.04,1.38 C33.04,1.4200002 33.0499999,1.44 33.07,1.44 C33.270001,1.7600016 33.37,2.2799964 33.37,3 C33.37,3.7000035 33.2150015,4.57499475 32.905,5.625 C32.5949984,6.67500525 32.1600028,7.7899941 31.6,8.97 C31.0799974,10.0900056 30.5350028,11.0649958 29.965,11.895 C29.3949971,12.7250041 28.8700024,13.339998 28.39,13.74 C28.1699989,14.3800032 27.9650009,15.0249968 27.775,15.675 C27.584999,16.3250033 27.4100008,16.9599969 27.25,17.58 C27.8300029,16.6799955 28.4599966,15.9150031 29.14,15.285 C29.8200034,14.6549968 30.559996,14.34 31.36,14.34 C32.2000042,14.34 32.8499977,14.5999974 33.31,15.12 C33.7700023,15.6400026 34,16.3599954 34,17.28 C34,18.0200037 33.8100019,18.9599943 33.43,20.1 C33.1499986,20.9800044 32.9300008,21.7299969 32.77,22.35 C32.6099992,22.9700031 32.53,23.479998 32.53,23.88 C32.53,24.1000011 32.5449998,24.2449996 32.575,24.315 C32.6050001,24.3850003 32.6299999,24.4399998 32.65,24.48 C32.7900007,24.48 33.0649979,24.3350015 33.475,24.045 C33.885002,23.7549985 34.4399965,23.1800043 35.14,22.32 C35.4000013,21.9999984 35.6749985,21.6300021 35.965,21.21 C36.2550014,20.7899979 36.5499985,20.3550022 36.85,19.905 C37.1500015,19.4549978 37.4449985,19.0050023 37.735,18.555 C38.0250014,18.1049977 38.2899988,17.680002 38.53,17.28 L39.49,15.78 C39.690001,15.4999986 39.8499994,15.2850008 39.97,15.135 C40.0900006,14.9849993 40.249999,14.91 40.45,14.91 Z M29.71,9.45 C29.9900014,8.9699976 30.2499988,8.4500028 30.49,7.89 C31.0700029,6.6299937 31.4699989,5.4900051 31.69,4.47 C31.3899985,5.0900031 31.0750016,5.8199958 30.745,6.66 C30.4149983,7.5000042 30.0700018,8.4299949 29.71,9.45 Z M48.22,14.94 C48.4400011,14.94 48.6199993,15.0099993 48.76,15.15 C48.9000007,15.2900007 48.97,15.4699989 48.97,15.69 C48.97,15.890001 48.9300004,16.0399995 48.85,16.14 L48.22,17.16 C48.0799993,17.3800011 47.9550005,17.5849991 47.845,17.775 C47.7349994,17.965001 47.6200006,18.159999 47.5,18.36 C47.0199976,19.160004 46.5200026,19.964996 46,20.775 C45.4799974,21.5850041 44.8700035,22.4199957 44.17,23.28 C44.1299998,23.3200002 44.105,23.3499999 44.095,23.37 C44.0849999,23.3900001 44.0600002,23.4099999 44.02,23.43 C43.7399986,23.7500016 43.4500015,24.0799983 43.15,24.42 C42.8499985,24.7600017 42.5300017,25.0649986 42.19,25.335 C41.8499983,25.6050014 41.4900019,25.8299991 41.11,26.01 C40.7299981,26.1900009 40.3200022,26.28 39.88,26.28 L39.715,26.28 C39.6449996,26.28 39.5600005,26.2700001 39.46,26.25 C38.7399964,26.1299994 38.2000018,25.770003 37.84,25.17 C37.4999983,24.6499974 37.33,23.9700042 37.33,23.13 C37.33,22.329996 37.4499988,21.4900044 37.69,20.61 C37.9300012,19.7299956 38.1949985,18.9100038 38.485,18.15 C38.7750014,17.3899962 39.0449987,16.7550026 39.295,16.245 C39.5450012,15.7349975 39.6799999,15.4600002 39.7,15.42 L39.7,15.39 C40.0800019,14.6899965 40.7299954,14.34 41.65,14.34 C41.8900012,14.34 42.109999,14.3599998 42.31,14.4 C42.510001,14.4400002 42.6599995,14.4799998 42.76,14.52 C42.7800001,14.52 42.7999999,14.5299999 42.82,14.55 C43.1200015,14.6100003 43.27,14.7999984 43.27,15.12 C43.27,15.2000004 43.265,15.2649998 43.255,15.315 C43.2449999,15.3650003 43.2000004,15.4699992 43.12,15.63 C42.9599992,15.9700017 42.7000018,16.5299961 42.34,17.31 C41.9799982,18.0900039 41.6300017,18.9599952 41.29,19.92 C40.9699984,20.7600042 40.7250008,21.5199966 40.555,22.2 C40.3849991,22.8800034 40.3,23.4399978 40.3,23.88 C40.3,24.1000011 40.3149998,24.2549996 40.345,24.345 C40.3750001,24.4350005 40.3999999,24.4899999 40.42,24.51 C40.4600002,24.51 40.5549992,24.4850002 40.705,24.435 C40.8550007,24.3849997 41.0649986,24.2400012 41.335,24 C41.6050013,23.7599988 41.9549978,23.4050024 42.385,22.935 C42.8150021,22.4649977 43.329997,21.8100042 43.93,20.97 C44.2700017,20.5099977 44.6099983,20.0300025 44.95,19.53 C45.2900017,19.0299975 45.6149984,18.5350025 45.925,18.045 C46.2350015,17.5549976 46.5299986,17.0800023 46.81,16.62 C47.0900014,16.1599977 47.3399989,15.7400019 47.56,15.36 C47.7000007,15.0799986 47.9199985,14.94 48.22,14.94 Z M42.07,13.2 C41.669998,13.2 41.3400013,13.0800012 41.08,12.84 C40.8199987,12.5999988 40.69,12.280002 40.69,11.88 C40.69,11.7999996 40.6949999,11.7100005 40.705,11.61 C40.715,11.5099995 40.7499997,11.4100005 40.81,11.31 C40.9500007,10.8899979 41.2099981,10.5350014 41.59,10.245 C41.9700019,9.95499855 42.3699979,9.81 42.79,9.81 C43.2100021,9.81 43.5499987,9.9399987 43.81,10.2 C44.0700013,10.4600013 44.2,10.789998 44.2,11.19 C44.2,11.7500028 43.9700023,12.229998 43.51,12.63 C43.0699978,13.0100019 42.5900026,13.2 42.07,13.2 Z M62.29,15.09 C62.5100011,15.09 62.6899993,15.1599993 62.83,15.3 C62.9700007,15.4400007 63.04,15.6199989 63.04,15.84 C63.04,15.9800007 62.9900005,16.1199993 62.89,16.26 L62.26,17.31 L61.54,18.48 C61.0799977,19.280004 60.5850026,20.0899959 60.055,20.91 C59.5249973,21.7300041 58.9100035,22.5599958 58.21,23.4 L58.21,23.43 L58.09,23.58 C57.8099986,23.9000016 57.5200015,24.2249983 57.22,24.555 C56.9199985,24.8850016 56.6000017,25.1899986 56.26,25.47 C55.9199983,25.7500014 55.5550019,25.9799991 55.165,26.16 C54.774998,26.3400009 54.3700021,26.43 53.95,26.43 C53.0899957,26.43 52.4300023,26.1100032 51.97,25.47 C51.5899981,24.8899971 51.4,24.1600044 51.4,23.28 L51.4,22.92 C51.4,22.7999994 51.4099999,22.6800006 51.43,22.56 C50.9499976,23.1800031 50.4400027,23.6849981 49.9,24.075 C49.3599973,24.465002 48.7800031,24.66 48.16,24.66 L47.965,24.66 C47.8949996,24.66 47.8200004,24.6400002 47.74,24.6 C46.939996,24.4799994 46.3500019,24.1400028 45.97,23.58 C45.6499984,23.1199977 45.49,22.490004 45.49,21.69 C45.49,21.1699974 45.5549993,20.6150029 45.685,20.025 C45.8150006,19.434997 45.979999,18.8650028 46.18,18.315 C46.380001,17.7649973 46.5899989,17.2450025 46.81,16.755 C47.0300011,16.2649976 47.2299991,15.8600016 47.41,15.54 C47.810002,14.8399965 48.4699954,14.49 49.39,14.49 C49.6100011,14.49 49.8249989,14.5099998 50.035,14.55 C50.245001,14.5900002 50.3999995,14.6299998 50.5,14.67 L50.56,14.67 C50.7400009,14.7500004 50.8699996,14.8599993 50.95,15 C51.0300004,15.200001 51.0300004,15.3599994 50.95,15.48 C50.9299999,15.5400003 50.9000002,15.6149996 50.86,15.705 C50.8199998,15.7950004 50.7800002,15.8899995 50.74,15.99 C50.5799992,16.3300017 50.3800012,16.7749972 50.14,17.325 C49.8999988,17.8750028 49.6650011,18.4599969 49.435,19.08 C49.2049988,19.7000031 49.0050008,20.309997 48.835,20.91 C48.6649991,21.510003 48.58,22.0199979 48.58,22.44 C48.58,22.6600011 48.6099997,22.7999997 48.67,22.86 L48.67,22.89 L48.73,22.89 C48.7700002,22.89 48.8449994,22.8700002 48.955,22.83 C49.0650005,22.7899998 49.2099991,22.6950007 49.39,22.545 C49.5700009,22.3949993 49.7899987,22.1650015 50.05,21.855 C50.3100013,21.5449985 50.6099983,21.1300026 50.95,20.61 C51.4100023,19.9299966 51.839998,19.2100038 52.24,18.45 C52.640002,17.6899962 52.9799986,17.0400027 53.26,16.5 L53.74,15.54 C54.1200019,14.8399965 54.7799953,14.49 55.72,14.49 C55.9400011,14.49 56.1549989,14.5099998 56.365,14.55 C56.575001,14.5900002 56.7299995,14.6299998 56.83,14.67 L56.89,14.67 C57.1900015,14.7300003 57.34,14.9299983 57.34,15.27 C57.34,15.3300003 57.3300001,15.3849998 57.31,15.435 C57.2899999,15.4850002 57.2400004,15.5899992 57.16,15.75 C56.9999992,16.0900017 56.7450017,16.6549961 56.395,17.445 C56.0449982,18.2350039 55.7000017,19.0999953 55.36,20.04 L55.36,20.07 C55.0399984,20.9100042 54.7950008,21.6699966 54.625,22.35 C54.4549991,23.0300034 54.37,23.5899978 54.37,24.03 C54.37,24.230001 54.3849998,24.3749995 54.415,24.465 C54.4450001,24.5550005 54.4699999,24.6199998 54.49,24.66 C54.5300002,24.66 54.6199993,24.6350003 54.76,24.585 C54.9000007,24.5349997 55.1099986,24.3900012 55.39,24.15 C55.6700014,23.9099988 56.0249978,23.5550024 56.455,23.085 C56.8850021,22.6149976 57.399997,21.9600042 58,21.12 C58.3400017,20.6399976 58.6799983,20.1500025 59.02,19.65 C59.3600017,19.1499975 59.6849984,18.6550024 59.995,18.165 C60.3050015,17.6749976 60.5999986,17.2000023 60.88,16.74 C61.1600014,16.2799977 61.4099989,15.8600019 61.63,15.48 C61.7300005,15.2199987 61.9499983,15.09 62.29,15.09 Z M76.6,15.18 C76.9000015,15.3400008 77.05,15.5699985 77.05,15.87 L77.05,15.93 C77.0299999,16.0900008 76.9050011,16.5299964 76.675,17.25 C76.4449988,17.9700036 76.0400029,19.0399929 75.46,20.46 C74.5999957,22.5800106 73.8200035,24.1999944 73.12,25.32 C72.9599992,25.5600012 72.7900009,25.8099987 72.61,26.07 C72.4299991,26.3300013 72.2300011,26.5799988 72.01,26.82 C71.3699968,27.4800033 70.7300032,27.81 70.09,27.81 C69.1699954,27.81 68.5000021,27.4600035 68.08,26.76 C67.9199992,26.4799986 67.8000004,26.1700017 67.72,25.83 C67.6399996,25.4899983 67.5800002,25.1500017 67.54,24.81 C67.3999993,23.9899959 67.2100012,23.4200016 66.97,23.1 C66.7299988,22.7799984 66.310003,22.5800004 65.71,22.5 L65.59,22.5 C65.3699989,22.5 65.1900007,22.4300007 65.05,22.29 C64.9099993,22.1499993 64.84,21.9700011 64.84,21.75 C64.84,21.5299989 64.9149993,21.3500007 65.065,21.21 C65.2150008,21.0699993 65.389999,21 65.59,21 L65.77,21 C66.1100017,20.9599998 66.4699981,20.8350011 66.85,20.625 C67.2300019,20.4149989 67.5799984,20.1300018 67.9,19.77 C68.5600033,19.0099962 68.89,18.230004 68.89,17.43 C68.89,17.0899983 68.8450004,16.820001 68.755,16.62 C68.6649995,16.419999 68.5900003,16.3100001 68.53,16.29 C68.3699992,16.29 68.085002,16.4349986 67.675,16.725 C67.2649979,17.0150014 66.7500031,17.5199964 66.13,18.24 C65.5699972,18.9200034 65.0100028,19.7049955 64.45,20.595 C63.8899972,21.4850044 63.3500026,22.429995 62.83,23.43 C62.6699992,23.7100014 62.4450015,23.9849987 62.155,24.255 C61.8649985,24.5250013 61.4100031,24.66 60.79,24.66 C60.4099981,24.66 60.020002,24.5900007 59.62,24.45 C59.4599992,24.3899997 59.3500003,24.2900007 59.29,24.15 C59.2299997,24.0499995 59.205,23.9500005 59.215,23.85 C59.2250001,23.7499995 59.2499998,23.6200008 59.29,23.46 C59.3100001,23.3599995 59.3349999,23.2450006 59.365,23.115 C59.3950002,22.9849994 59.4299998,22.8400008 59.47,22.68 C59.5700005,22.3199982 59.6799994,21.9100023 59.8,21.45 C59.9200006,20.9899977 60.0499993,20.5100025 60.19,20.01 C60.4700014,19.0499952 60.809998,17.8750069 61.21,16.485 C61.610002,15.094993 62.0399977,13.6500075 62.5,12.15 C63.700006,8.4299814 64.7399956,5.6600091 65.62,3.84 C66.1600027,2.7599946 66.6599977,1.9700025 67.12,1.47 C67.5800023,0.9699975 68.0399977,0.72 68.5,0.72 C69.1800034,0.72 69.6899983,1.0299969 70.03,1.65 C70.1700007,1.9100013 70.2599998,2.1799986 70.3,2.46 C70.3400002,2.7400014 70.36,2.9899989 70.36,3.21 C70.36,3.9100035 70.2050015,4.78499475 69.895,5.835 C69.5849985,6.88500525 69.1500028,8.009994 68.59,9.21 C68.0699974,10.3100055 67.5250028,11.2749958 66.955,12.105 C66.3849972,12.9350042 65.8600024,13.549998 65.38,13.95 C65.1199987,14.7100038 64.8800011,15.4799961 64.66,16.26 C64.4399989,17.0400039 64.2400009,17.7799965 64.06,18.48 C64.3600015,18.079998 64.6599985,17.7050018 64.96,17.355 C65.2600015,17.0049982 65.5499986,16.6900014 65.83,16.41 C67.2500071,15.0499932 68.5199944,14.37 69.64,14.37 C69.9800017,14.37 70.3099984,14.4449993 70.63,14.595 C70.9500016,14.7450008 71.2299988,14.9599986 71.47,15.24 C71.9500024,15.7800027 72.19,16.4599959 72.19,17.28 C72.19,18.4600059 71.5600063,19.5599949 70.3,20.58 C69.7599973,21.0400023 69.1500034,21.4199985 68.47,21.72 C68.7500014,21.9400011 69.0599983,22.2599979 69.4,22.68 C69.6600013,23.0400018 69.8699992,23.4249979 70.03,23.835 C70.1900008,24.245002 70.3399993,24.6199983 70.48,24.96 C70.5200002,25.1200008 70.5749996,25.2899991 70.645,25.47 C70.7150004,25.6500009 70.7799997,25.7999994 70.84,25.92 C70.9400005,25.8199995 71.084999,25.6500012 71.275,25.41 C71.4650009,25.1699988 71.7099985,24.7900026 72.01,24.27 C72.3500017,23.6899971 72.6949982,23.0350037 73.045,22.305 C73.3950018,21.5749963 73.7399983,20.7900042 74.08,19.95 C74.4000016,19.1699961 74.654999,18.5150026 74.845,17.985 C75.0350009,17.4549973 75.1849994,17.0300016 75.295,16.71 C75.4050005,16.3899984 75.4799998,16.1550007 75.52,16.005 C75.5600002,15.8549992 75.58,15.7700001 75.58,15.75 C75.58,15.7099998 75.5999998,15.6500004 75.64,15.57 C75.7800007,15.2699985 75.9999985,15.12 76.3,15.12 L76.33,15.12 C76.4300005,15.12 76.5199996,15.1399998 76.6,15.18 Z M66.7,9.69 C66.8400007,9.4299987 66.9749993,9.17500125 67.105,8.925 C67.2350006,8.67499875 67.3599994,8.4100014 67.48,8.13 C68.0600029,6.8299935 68.4599989,5.680005 68.68,4.68 C68.0999971,5.9200062 67.4400037,7.5899895 66.7,9.69 Z M92.68,15.39 C92.7800005,15.4900005 92.8349999,15.5949994 92.845,15.705 C92.855,15.8150006 92.86,15.8899998 92.86,15.93 C92.86,16.130001 92.8000006,16.2999993 92.68,16.44 C91.6599949,17.5800057 90.5300062,18.4649968 89.29,19.095 C88.0499938,19.7250031 86.830006,20.04 85.63,20.04 L85.3,20.04 C85.1799994,20.04 85.0700005,20.0300001 84.97,20.01 C84.1099957,21.5300076 83.1450053,22.6949959 82.075,23.505 C81.0049946,24.315004 79.8800059,24.72 78.7,24.72 C77.3399932,24.72 76.3000036,24.3100041 75.58,23.49 C74.8599964,22.7099961 74.5,21.620007 74.5,20.22 C74.5,19.419996 74.6149988,18.5800044 74.845,17.7 C75.0750011,16.8199956 75.389998,16.0200036 75.79,15.3 C76.2900025,14.3999955 76.8749966,13.7100024 77.545,13.23 C78.2150033,12.7499976 78.9299962,12.51 79.69,12.51 L80.05,12.51 C80.1100003,11.909997 80.2299991,11.3350028 80.41,10.785 C80.5900009,10.2349973 80.8299985,9.7400022 81.13,9.3 C81.5100019,8.7799974 81.9449975,8.37500145 82.435,8.085 C82.9250024,7.79499855 83.4499972,7.65 84.01,7.65 C85.0700053,7.65 85.8699973,8.0899956 86.41,8.97 C86.8900024,9.7500039 87.13,10.7999934 87.13,12.12 C87.13,13.0600047 87.0150011,14.0749945 86.785,15.165 C86.5549988,16.2550054 86.2200022,17.3199948 85.78,18.36 C85.980001,18.4000002 86.1499993,18.42 86.29,18.42 C86.7100021,18.42 87.1599976,18.3350009 87.64,18.165 C88.1200024,17.9949991 88.5949976,17.7700014 89.065,17.49 C89.5350023,17.2099986 89.9799979,16.8900018 90.4,16.53 C90.8200021,16.1699982 91.1999983,15.8000019 91.54,15.42 L91.57,15.39 C91.6700005,15.2899995 91.7749994,15.2300001 91.885,15.21 C91.9950005,15.1899999 92.0699998,15.18 92.11,15.18 C92.3500012,15.18 92.5399993,15.2499993 92.68,15.39 Z M79.3,22.98 C79.8800029,22.98 80.564996,22.6900029 81.355,22.11 C82.1450039,21.5299971 82.8499969,20.7000054 83.47,19.62 C82.6299958,19.2799983 81.9200029,18.7200039 81.34,17.94 C80.5999963,16.9799952 80.1800005,15.8300067 80.08,14.49 C79.7999986,14.7300012 79.5250013,15.0699978 79.255,15.51 C78.9849986,15.9500022 78.7400011,16.4349974 78.52,16.965 C78.2999989,17.4950026 78.1250006,18.0499971 77.995,18.63 C77.8649993,19.2100029 77.8,19.7799972 77.8,20.34 C77.8,21.3000048 77.9699983,22.0099977 78.31,22.47 C78.5500012,22.8100017 78.8799979,22.98 79.3,22.98 Z M83.59,10.56 C83.2099981,11.4200043 83.02,12.3699948 83.02,13.41 C83.02,14.210004 83.1499987,14.9549966 83.41,15.645 C83.6700013,16.3350035 84.0299977,16.9399974 84.49,17.46 C84.8500018,16.5599955 85.129999,15.6400047 85.33,14.7 C85.530001,13.7599953 85.63,12.8800041 85.63,12.06 C85.63,10.9999947 85.4600017,10.2200025 85.12,9.72 C84.9599992,9.4999989 84.8100007,9.39 84.67,9.39 C84.269998,9.39 83.9100016,9.7799961 83.59,10.56 Z M167.91,26.37 C167.97,26.5300008 168.01,26.6999991 168.03,26.88 C168.05,27.0600009 168.06,27.2299992 168.06,27.39 C168.06,28.8700074 167.520005,30.0399957 166.44,30.9 C165.459995,31.700004 164.150008,32.1 162.51,32.1 C161.689996,32.1 160.845004,31.9750012 159.975,31.725 C159.104996,31.4749987 158.170005,31.1000025 157.17,30.6 C156.309996,30.1599978 155.455004,29.6650027 154.605,29.115 C153.754996,28.5649972 152.910004,28.0100028 152.07,27.45 C150.889994,26.649996 149.700006,25.8750038 148.5,25.125 C147.299994,24.3749962 146.090006,23.7900021 144.87,23.37 C144.089996,23.8300023 143.320004,24.1699989 142.56,24.39 C141.799996,24.6100011 141.010004,24.72 140.19,24.72 C139.669997,24.72 139.150003,24.6800004 138.63,24.6 C138.109997,24.5199996 137.640002,24.4000008 137.22,24.24 C136.539997,24.6800022 136.010002,25.1699973 135.63,25.71 C135.63,25.7300001 135.61,25.7599998 135.57,25.8 C135.409999,25.9600008 135.220001,26.04 135,26.04 C134.799999,26.04 134.630001,25.9650008 134.49,25.815 C134.349999,25.6649993 134.28,25.490001 134.28,25.29 C134.28,25.089999 134.359999,24.8550014 134.52,24.585 C134.680001,24.3149986 135.049997,23.9600022 135.63,23.52 C134.869996,23.0199975 134.280002,22.370004 133.86,21.57 C133.339997,20.6499954 133.08,19.4200077 133.08,17.88 C133.08,16.7399943 133.264998,15.470007 133.635,14.07 C134.005002,12.669993 134.539997,11.2200075 135.24,9.72 C135.760003,8.5799943 136.329997,7.510005 136.95,6.51 C137.570003,5.509995 138.189997,4.6600035 138.81,3.96 C138.169997,3.8199993 137.525003,3.66500085 136.875,3.495 C136.224997,3.32499915 135.570003,3.1500009 134.91,2.97 C133.689994,2.6299983 132.530005,2.3300013 131.43,2.07 C130.329994,1.8099987 129.400004,1.68 128.64,1.68 C128.339998,1.68 128.070001,1.7099997 127.83,1.77 C127.93,1.970001 127.98,2.1599991 127.98,2.34 C127.98,2.6600016 127.865001,2.9299989 127.635,3.15 C127.404999,3.3700011 127.130002,3.48 126.81,3.48 C126.489998,3.48 126.220001,3.3700011 126,3.15 C125.779999,2.9299989 125.67,2.6600016 125.67,2.34 C125.67,2.2399995 125.68,2.1600003 125.7,2.1 C125.8,1.5199971 126.114997,1.05500175 126.645,0.705 C127.175003,0.35499825 127.849996,0.18 128.67,0.18 C129.530004,0.18 130.519994,0.3099987 131.64,0.57 C132.760006,0.8300013 133.939994,1.1299983 135.18,1.47 C136.020004,1.7100012 136.869996,1.9399989 137.73,2.16 C138.590004,2.3800011 139.399996,2.5499994 140.16,2.67 C140.840003,2.1499974 141.469997,1.7800011 142.05,1.56 C142.630003,1.3399989 143.239997,1.23 143.88,1.23 C144.420003,1.23 144.814999,1.36499865 145.065,1.635 C145.315001,1.90500135 145.44,2.1999984 145.44,2.52 C145.44,2.720001 145.39,2.919999 145.29,3.12 C145.870003,2.4599967 146.494997,1.95500175 147.165,1.605 C147.835003,1.25499825 148.519996,1.08 149.22,1.08 C149.960004,1.08 150.619997,1.2399984 151.2,1.56 C151.780003,1.8600015 152.279998,2.2999971 152.7,2.88 C153.480004,4.0000056 153.87,5.4199914 153.87,7.14 C153.87,8.4800067 153.660002,9.9099924 153.24,11.43 C152.859998,12.8700072 152.300004,14.3299926 151.56,15.81 C150.919997,17.0700063 150.210004,18.2199948 149.43,19.26 C148.649996,20.3000052 147.830004,21.1799964 146.97,21.9 C148.410007,22.3600023 149.754994,22.9749962 151.005,23.745 C152.255006,24.5150038 153.479994,25.3099959 154.68,26.13 L155.01,26.37 L155.79,26.91 C156.450003,27.3700023 157.099997,27.8149978 157.74,28.245 C158.380003,28.6750021 159.014997,29.0549983 159.645,29.385 C160.275003,29.7150016 160.899997,29.979999 161.52,30.18 C162.140003,30.380001 162.769997,30.48 163.41,30.48 C163.930003,30.48 164.374998,30.4000008 164.745,30.24 C165.115002,30.0799992 165.429999,29.8700013 165.69,29.61 C165.950001,29.3499987 166.144999,29.0700015 166.275,28.77 C166.405001,28.4699985 166.49,28.1700015 166.53,27.87 C166.289999,27.8099997 166.090001,27.675001 165.93,27.465 C165.769999,27.254999 165.69,27.0200013 165.69,26.76 C165.69,26.4399984 165.799999,26.1700011 166.02,25.95 C166.240001,25.7299989 166.509998,25.62 166.83,25.62 C167.370003,25.62 167.729999,25.8699975 167.91,26.37 Z M143.25,8.13 C143.25,7.3699962 143.389999,6.59500395 143.67,5.805 C143.950001,5.01499605 144.349997,4.2800034 144.87,3.6 C144.709999,3.7600008 144.520001,3.8799996 144.3,3.96 C143.739997,4.2400014 143.040004,4.38 142.2,4.38 C141.579997,5.0000031 140.935003,5.8299948 140.265,6.87 C139.594997,7.9100052 138.970003,9.0399939 138.39,10.26 C137.729997,11.7000072 137.225002,13.0699935 136.875,14.37 C136.524998,15.6700065 136.35,16.8399948 136.35,17.88 C136.35,19.8000096 136.909994,21.2199954 138.03,22.14 C138.830004,21.7999983 139.599996,21.5600007 140.34,21.42 C141.080004,21.2799993 141.869996,21.21 142.71,21.21 C143.130002,21.21 143.539998,21.2249998 143.94,21.255 C144.340002,21.2850002 144.739998,21.3399996 145.14,21.42 C146.120005,20.6999964 147.049996,19.7850056 147.93,18.675 C148.810004,17.5649945 149.579997,16.3650065 150.24,15.075 C150.900003,13.7849936 151.419998,12.4550069 151.8,11.085 C152.180002,9.71499315 152.37,8.4100062 152.37,7.17 C152.37,5.7099927 152.080003,4.5700041 151.5,3.75 C150.959997,2.9699961 150.200005,2.58 149.22,2.58 C148.699997,2.58 148.175003,2.7299985 147.645,3.03 C147.114997,3.3300015 146.620002,3.7599972 146.16,4.32 C145.719998,4.8600027 145.380001,5.4599967 145.14,6.12 C144.899999,6.7800033 144.78,7.4299968 144.78,8.07 C144.78,8.1700005 144.79,8.3599986 144.81,8.64 C144.83,8.9200014 144.885,9.22499835 144.975,9.555 C145.065,9.88500165 145.209999,10.2099984 145.41,10.53 C145.610001,10.8500016 145.879998,11.0999991 146.22,11.28 C146.440001,10.9199982 146.769998,10.74 147.21,10.74 C147.510001,10.74 147.769999,10.844999 147.99,11.055 C148.210001,11.2650011 148.32,11.5299984 148.32,11.85 C148.32,12.1900017 148.200001,12.4749988 147.96,12.705 C147.719999,12.9350011 147.420002,13.05 147.06,13.05 C145.639993,13.05 144.590003,12.4000065 143.91,11.1 C143.609998,10.5199971 143.425,9.94500285 143.355,9.375 C143.285,8.80499715 143.25,8.3900013 143.25,8.13 Z M141.87,22.83 C141.249997,22.83 140.650003,22.8999993 140.07,23.04 C140.310001,23.1000003 140.569999,23.13 140.85,23.13 C141.430003,23.13 141.989997,23.0400009 142.53,22.86 C142.409999,22.8399999 142.295001,22.83 142.185,22.83 L141.87,22.83 Z M167.37,15.09 C167.590001,15.09 167.769999,15.1599993 167.91,15.3 C168.050001,15.4400007 168.12,15.6199989 168.12,15.84 C168.12,15.9800007 168.07,16.1199993 167.97,16.26 L167.34,17.31 L166.62,18.48 C166.159998,19.280004 165.665003,20.0899959 165.135,20.91 C164.604997,21.7300041 163.990003,22.5599958 163.29,23.4 L163.29,23.43 L163.17,23.58 C162.889999,23.9000016 162.600001,24.2249983 162.3,24.555 C161.999998,24.8850016 161.680002,25.1899986 161.34,25.47 C160.999998,25.7500014 160.635002,25.9799991 160.245,26.16 C159.854998,26.3400009 159.450002,26.43 159.03,26.43 C158.169996,26.43 157.510002,26.1100032 157.05,25.47 C156.669998,24.8899971 156.48,24.1600044 156.48,23.28 L156.48,22.92 C156.48,22.7999994 156.49,22.6800006 156.51,22.56 C156.029998,23.1800031 155.520003,23.6849981 154.98,24.075 C154.439997,24.465002 153.860003,24.66 153.24,24.66 L153.045,24.66 C152.975,24.66 152.9,24.6400002 152.82,24.6 C152.019996,24.4799994 151.430002,24.1400028 151.05,23.58 C150.729998,23.1199977 150.57,22.490004 150.57,21.69 C150.57,21.1699974 150.634999,20.6150029 150.765,20.025 C150.895001,19.434997 151.059999,18.8650028 151.26,18.315 C151.460001,17.7649973 151.669999,17.2450025 151.89,16.755 C152.110001,16.2649976 152.309999,15.8600016 152.49,15.54 C152.890002,14.8399965 153.549995,14.49 154.47,14.49 C154.690001,14.49 154.904999,14.5099998 155.115,14.55 C155.325001,14.5900002 155.479999,14.6299998 155.58,14.67 L155.64,14.67 C155.820001,14.7500004 155.95,14.8599993 156.03,15 C156.11,15.200001 156.11,15.3599994 156.03,15.48 C156.01,15.5400003 155.98,15.6149996 155.94,15.705 C155.9,15.7950004 155.86,15.8899995 155.82,15.99 C155.659999,16.3300017 155.460001,16.7749972 155.22,17.325 C154.979999,17.8750028 154.745001,18.4599969 154.515,19.08 C154.284999,19.7000031 154.085001,20.309997 153.915,20.91 C153.744999,21.510003 153.66,22.0199979 153.66,22.44 C153.66,22.6600011 153.69,22.7999997 153.75,22.86 L153.75,22.89 L153.81,22.89 C153.85,22.89 153.924999,22.8700002 154.035,22.83 C154.145001,22.7899998 154.289999,22.6950007 154.47,22.545 C154.650001,22.3949993 154.869999,22.1650015 155.13,21.855 C155.390001,21.5449985 155.689998,21.1300026 156.03,20.61 C156.490002,19.9299966 156.919998,19.2100038 157.32,18.45 C157.720002,17.6899962 158.059999,17.0400027 158.34,16.5 L158.82,15.54 C159.200002,14.8399965 159.859995,14.49 160.8,14.49 C161.020001,14.49 161.234999,14.5099998 161.445,14.55 C161.655001,14.5900002 161.809999,14.6299998 161.91,14.67 L161.97,14.67 C162.270001,14.7300003 162.42,14.9299983 162.42,15.27 C162.42,15.3300003 162.41,15.3849998 162.39,15.435 C162.37,15.4850002 162.32,15.5899992 162.24,15.75 C162.079999,16.0900017 161.825002,16.6549961 161.475,17.445 C161.124998,18.2350039 160.780002,19.0999953 160.44,20.04 L160.44,20.07 C160.119998,20.9100042 159.875001,21.6699966 159.705,22.35 C159.534999,23.0300034 159.45,23.5899978 159.45,24.03 C159.45,24.230001 159.465,24.3749995 159.495,24.465 C159.525,24.5550005 159.55,24.6199998 159.57,24.66 C159.61,24.66 159.699999,24.6350003 159.84,24.585 C159.980001,24.5349997 160.189999,24.3900012 160.47,24.15 C160.750001,23.9099988 161.104998,23.5550024 161.535,23.085 C161.965002,22.6149976 162.479997,21.9600042 163.08,21.12 C163.420002,20.6399976 163.759998,20.1500025 164.1,19.65 C164.440002,19.1499975 164.764998,18.6550024 165.075,18.165 C165.385002,17.6749976 165.679999,17.2000023 165.96,16.74 C166.240001,16.2799977 166.489999,15.8600019 166.71,15.48 C166.810001,15.2199987 167.029998,15.09 167.37,15.09 Z M182.52,15.15 C182.740001,15.15 182.919999,15.2199993 183.06,15.36 C183.200001,15.5000007 183.27,15.6799989 183.27,15.9 C183.27,16.0800009 183.23,16.2199995 183.15,16.32 L182.52,17.37 L182.04,18.15 C181.519997,19.0100043 180.985003,19.8799956 180.435,20.76 C179.884997,21.6400044 179.230004,22.5399954 178.47,23.46 L178.47,23.49 C178.189999,23.8300017 177.895002,24.1749983 177.585,24.525 C177.274998,24.8750018 176.940002,25.1949986 176.58,25.485 C176.219998,25.7750014 175.840002,26.0149991 175.44,26.205 C175.039998,26.3950009 174.620002,26.49 174.18,26.49 C173.339996,26.49 172.670002,26.1600033 172.17,25.5 C171.769998,24.9399972 171.57,24.1900047 171.57,23.25 C171.57,22.7299974 171.649999,22.1550031 171.81,21.525 C171.970001,20.8949969 172.139999,20.2600032 172.32,19.62 C172.480001,19.0799973 172.624999,18.5550026 172.755,18.045 C172.885001,17.5349975 172.95,17.1100017 172.95,16.77 C172.95,16.5099987 172.93,16.38 172.89,16.38 L172.83,16.38 C172.79,16.38 172.715001,16.3999998 172.605,16.44 C172.494999,16.4800002 172.345001,16.5799992 172.155,16.74 C171.964999,16.9000008 171.730001,17.1449984 171.45,17.475 C171.169999,17.8050017 170.850002,18.2499972 170.49,18.81 C170.009998,19.5500037 169.565002,20.3099961 169.155,21.09 C168.744998,21.8700039 168.410001,22.5199974 168.15,23.04 L167.97,23.37 L167.94,23.52 L167.88,23.64 C167.499998,24.3400035 166.830005,24.69 165.87,24.69 C165.649999,24.69 165.430001,24.6650002 165.21,24.615 C164.989999,24.5649997 164.810001,24.5000004 164.67,24.42 C164.369998,24.2799993 164.26,24.0500016 164.34,23.73 C164.600001,22.8299955 164.809999,22.0650032 164.97,21.435 C165.130001,20.8049969 165.279999,20.2300026 165.42,19.71 C165.580001,19.109997 165.734999,18.5300028 165.885,17.97 C166.035001,17.4099972 166.219999,16.7500038 166.44,15.99 C166.740001,15.0299952 167.439994,14.55 168.54,14.55 C169.040002,14.55 169.459998,14.6199993 169.8,14.76 C169.960001,14.8000002 170.075,14.8899993 170.145,15.03 C170.215,15.1700007 170.23,15.3199992 170.19,15.48 L169.68,17.31 C169.72,17.2299996 169.76,17.1700002 169.8,17.13 C171.020006,15.4299915 172.229994,14.58 173.43,14.58 C174.270004,14.58 174.919998,14.8399974 175.38,15.36 C175.840002,15.8800026 176.07,16.5999954 176.07,17.52 C176.07,18.2600037 175.880002,19.1999943 175.5,20.34 C175.219999,21.2200044 175.000001,21.9699969 174.84,22.59 C174.679999,23.2100031 174.6,23.719998 174.6,24.12 C174.6,24.3400011 174.615,24.4849996 174.645,24.555 C174.675,24.6250004 174.7,24.6799998 174.72,24.72 C174.860001,24.72 175.134998,24.5750015 175.545,24.285 C175.955002,23.9949986 176.509996,23.4200043 177.21,22.56 C177.470001,22.2399984 177.744999,21.8700021 178.035,21.45 C178.325001,21.0299979 178.619998,20.5950023 178.92,20.145 C179.220001,19.6949977 179.514999,19.2450022 179.805,18.795 C180.095001,18.3449978 180.359999,17.920002 180.6,17.52 L181.56,16.02 C181.760001,15.7399986 181.919999,15.5250008 182.04,15.375 C182.160001,15.2249993 182.319999,15.15 182.52,15.15 Z M190.5,14.94 C190.720001,14.94 190.899999,15.0099993 191.04,15.15 C191.180001,15.2900007 191.25,15.4699989 191.25,15.69 C191.25,15.890001 191.21,16.0399995 191.13,16.14 L190.5,17.16 C190.359999,17.3800011 190.235001,17.5849991 190.125,17.775 C190.014999,17.965001 189.900001,18.159999 189.78,18.36 C189.299998,19.160004 188.800003,19.964996 188.28,20.775 C187.759997,21.5850041 187.150003,22.4199957 186.45,23.28 C186.41,23.3200002 186.385,23.3499999 186.375,23.37 C186.365,23.3900001 186.34,23.4099999 186.3,23.43 C186.019999,23.7500016 185.730001,24.0799983 185.43,24.42 C185.129998,24.7600017 184.810002,25.0649986 184.47,25.335 C184.129998,25.6050014 183.770002,25.8299991 183.39,26.01 C183.009998,26.1900009 182.600002,26.28 182.16,26.28 L181.995,26.28 C181.925,26.28 181.84,26.2700001 181.74,26.25 C181.019996,26.1299994 180.480002,25.770003 180.12,25.17 C179.779998,24.6499974 179.61,23.9700042 179.61,23.13 C179.61,22.329996 179.729999,21.4900044 179.97,20.61 C180.210001,19.7299956 180.474999,18.9100038 180.765,18.15 C181.055001,17.3899962 181.324999,16.7550026 181.575,16.245 C181.825001,15.7349975 181.96,15.4600002 181.98,15.42 L181.98,15.39 C182.360002,14.6899965 183.009995,14.34 183.93,14.34 C184.170001,14.34 184.389999,14.3599998 184.59,14.4 C184.790001,14.4400002 184.939999,14.4799998 185.04,14.52 C185.06,14.52 185.08,14.5299999 185.1,14.55 C185.400001,14.6100003 185.55,14.7999984 185.55,15.12 C185.55,15.2000004 185.545,15.2649998 185.535,15.315 C185.525,15.3650003 185.48,15.4699992 185.4,15.63 C185.239999,15.9700017 184.980002,16.5299961 184.62,17.31 C184.259998,18.0900039 183.910002,18.9599952 183.57,19.92 C183.249998,20.7600042 183.005001,21.5199966 182.835,22.2 C182.664999,22.8800034 182.58,23.4399978 182.58,23.88 C182.58,24.1000011 182.595,24.2549996 182.625,24.345 C182.655,24.4350005 182.68,24.4899999 182.7,24.51 C182.74,24.51 182.834999,24.4850002 182.985,24.435 C183.135001,24.3849997 183.344999,24.2400012 183.615,24 C183.885001,23.7599988 184.234998,23.4050024 184.665,22.935 C185.095002,22.4649977 185.609997,21.8100042 186.21,20.97 C186.550002,20.5099977 186.889998,20.0300025 187.23,19.53 C187.570002,19.0299975 187.894998,18.5350025 188.205,18.045 C188.515002,17.5549976 188.809999,17.0800023 189.09,16.62 C189.370001,16.1599977 189.619999,15.7400019 189.84,15.36 C189.980001,15.0799986 190.199998,14.94 190.5,14.94 Z M184.35,13.2 C183.949998,13.2 183.620001,13.0800012 183.36,12.84 C183.099999,12.5999988 182.97,12.280002 182.97,11.88 C182.97,11.7999996 182.975,11.7100005 182.985,11.61 C182.995,11.5099995 183.03,11.4100005 183.09,11.31 C183.230001,10.8899979 183.489998,10.5350014 183.87,10.245 C184.250002,9.95499855 184.649998,9.81 185.07,9.81 C185.490002,9.81 185.829999,9.9399987 186.09,10.2 C186.350001,10.4600013 186.48,10.789998 186.48,11.19 C186.48,11.7500028 186.250002,12.229998 185.79,12.63 C185.349998,13.0100019 184.870003,13.2 184.35,13.2 Z" id="Chiuko-Quni"></path>
                <path d="M109.291016,18.9765625 C108.568356,19.7382851 107.85059,20.2900374 107.137695,20.6318359 C106.424801,20.9736345 105.775394,21.1689451 105.189453,21.2177734 C104.603513,21.2666018 104.100588,21.1933604 103.680664,20.9980469 C103.26074,20.8027334 102.992188,20.5488297 102.875,20.2363281 C102.640624,19.669919 102.582031,19.1181667 102.699219,18.5810547 C102.816407,18.0439426 103.045897,17.5459007 103.387695,17.0869141 C103.729494,16.6279274 104.154294,16.2373063 104.662109,15.9150391 C105.169924,15.5927718 105.702146,15.3632819 106.258789,15.2265625 C106.815432,15.0898431 107.367185,15.0751948 107.914063,15.1826172 C108.46094,15.2900396 108.949217,15.5488261 109.378906,15.9589844 L109.554688,11.6816406 C109.554688,11.4277331 109.627929,11.2275398 109.774414,11.0810547 C109.920899,10.9345696 110.091796,10.8466798 110.287109,10.8173828 C110.482423,10.7880858 110.677733,10.8173824 110.873047,10.9052734 C111.06836,10.9931645 111.214843,11.1347646 111.3125,11.3300781 L110.931641,15.8710938 L113.861328,13.9960938 C114.017579,14.0937505 114.164062,14.2060541 114.300781,14.3330078 C114.437501,14.4599616 114.535156,14.6064445 114.59375,14.7724609 C114.652344,14.9384774 114.657227,15.1289052 114.608398,15.34375 C114.55957,15.5585948 114.437501,15.7929675 114.242188,16.046875 L111.078125,17.8925781 L111.107422,22.8730469 C111.107422,23.2636738 111.014649,23.5615224 110.829102,23.7666016 C110.643554,23.9716807 110.438478,24.088867 110.213867,24.1181641 C109.989257,24.1474611 109.779298,24.0937507 109.583984,23.9570312 C109.388671,23.8203118 109.291016,23.5957047 109.291016,23.2832031 L109.291016,18.9765625 Z M108.529297,17.453125 C108.197264,17.062498 107.821291,16.8378909 107.401367,16.7792969 C106.981443,16.7207028 106.561526,16.7646477 106.141602,16.9111328 C105.721678,17.0576179 105.345705,17.2724595 105.013672,17.5556641 C104.681639,17.8388686 104.432618,18.1318344 104.266602,18.4345703 C104.100585,18.7373062 104.061523,19.010741 104.149414,19.2548828 C104.237305,19.4990247 104.496092,19.6601559 104.925781,19.7382812 C105.355471,19.7187499 105.799802,19.6015636 106.258789,19.3867188 C106.717776,19.1718739 107.127928,18.9326185 107.489258,18.6689453 C107.850588,18.4052721 108.128905,18.1513684 108.324219,17.9072266 C108.519532,17.6630847 108.587891,17.511719 108.529297,17.453125 Z" id="&amp;"></path>
            </g>
        </g>
    </g>
</svg>